<svg xmlns="http://www.w3.org/2000/svg" viewBox="0 0 24 24" fill="none" stroke="#0aa88f" stroke-width="1.9" stroke-linecap="round" stroke-linejoin="round">
  <path d="M20.5 11.8a8.5 8.5 0 0 1-12.4 7.5L3 20.7l1.4-5A8.5 8.5 0 1 1 20.5 11.8Z"/>
  <path d="M8.2 7.8c.3-.7.7-.7 1-.7h.4l.8 1.9c.1.3.1.5-.1.8l-.6.8c-.2.2-.2.4 0 .7.8 1.5 2 2.7 3.6 3.5.3.2.5.1.7-.1l.9-1.1c.2-.3.5-.3.8-.2l1.8.9c.3.1.5.3.5.5 0 .4-.2 1.3-.8 1.8-.6.6-1.5.9-2.5.7-1.2-.2-2.7-.8-4.5-2.3-2.2-1.9-3.6-4.2-4-5.5-.3-.9 0-1.5.2-1.7Z"/>
</svg>
