<svg xmlns="http://www.w3.org/2000/svg" viewBox="0 0 800 450" fill="none">
<g stroke="#0aa88f" stroke-width="3" opacity=".18">
<path d="M120 420C140 280 200 160 330 40"/>
<path d="M177 320c-55-25-85-70-90-132 62 8 103 42 118 101"/>
<path d="M235 231c-20-67-1-126 57-176 35 58 31 116-11 173"/>
<path d="M155 366c-63 2-110-22-142-72 60-18 113-4 155 43"/>
<path d="M280 159c4-60 34-105 89-135 17 57 1 108-49 151"/>
<path d="M540 430c-15-120 18-220 100-300"/>
<path d="M574 329c-47-20-73-58-76-112 52 7 87 34 99 84"/>
<path d="M622 239c-15-55 2-104 50-145 27 48 24 97-12 144"/>
</g>
</svg>